<svg width="810" height="610" viewBox="0 0 810 610" fill="none" xmlns="http://www.w3.org/2000/svg">
<g filter="url(#filter0_f_12_35)">
<rect width="800" height="600" transform="translate(5 5)" fill="#3D7E4B"/>
<path d="M519.783 395.121C518.396 401.847 510.515 407 501 407C491.485 407 483.604 401.847 482.217 395.121C483.604 385.994 491.485 379 501 379C510.515 379 518.396 385.994 519.783 395.121Z" fill="#5AC971"/>
<path d="M484.3 381.227C485.041 377.952 489.244 376.992 491.333 379.622L493.877 382.825C495.709 385.13 494.506 388.557 491.636 389.212L488.189 389.999C485.318 390.654 482.747 388.089 483.397 385.217L484.3 381.227Z" fill="#5AC971"/>
<path d="M517.011 381.227C516.27 377.952 512.066 376.992 509.977 379.622L507.433 382.825C505.602 385.13 506.804 388.557 509.675 389.212L513.122 389.999C515.992 390.654 518.563 388.089 517.913 385.217L517.011 381.227Z" fill="#5AC971"/>
<path d="M489.002 392.411C486.241 392.411 483.924 394.734 485.007 397.274C485.853 399.258 487.215 401.081 489.022 402.601C492.237 405.303 496.597 406.822 501.144 406.823C505.691 406.823 510.052 405.306 513.268 402.604C515.075 401.085 516.438 399.262 517.284 397.278C518.368 394.738 516.052 392.415 513.291 392.414L501.146 392.413L489.002 392.411Z" fill="#FFF8B8"/>
<path d="M514 393C514 394.105 512.209 395 510 395C507.791 395 506 394.105 506 393C506 391.895 507.791 392 510 392C512.209 392 514 391.895 514 393Z" fill="#D95151"/>
<path d="M77.7833 275.121C76.396 281.847 68.5148 287 59 287C49.4852 287 41.604 281.847 40.2167 275.121C41.604 265.994 49.4852 259 59 259C68.5148 259 76.396 265.994 77.7833 275.121Z" fill="#5AC971"/>
<path d="M42.2998 261.227C43.0408 257.952 47.2443 256.992 49.3332 259.622L51.8775 262.825C53.7089 265.13 52.5062 268.557 49.6356 269.212L46.1887 269.999C43.3182 270.654 40.7475 268.089 41.3972 265.217L42.2998 261.227Z" fill="#5AC971"/>
<path d="M75.0108 261.227C74.2698 257.952 70.0663 256.992 67.9774 259.622L65.4331 262.825C63.6017 265.13 64.8045 268.557 67.675 269.212L71.1219 269.999C73.9924 270.654 76.5631 268.089 75.9134 265.217L75.0108 261.227Z" fill="#5AC971"/>
<path d="M47.0019 272.411C44.2405 272.411 41.924 274.734 43.0071 277.274C43.8533 279.258 45.2151 281.081 47.022 282.601C50.2369 285.303 54.5974 286.822 59.1444 286.823C63.6914 286.823 68.0523 285.306 71.2679 282.604C73.0753 281.085 74.4376 279.262 75.2842 277.278C76.368 274.738 74.0522 272.415 71.2907 272.414L59.1463 272.413L47.0019 272.411Z" fill="#FFF8B8"/>
<path d="M72 273C72 274.105 70.2091 275 68 275C65.7909 275 64 274.105 64 273C64 271.895 65.7909 272 68 272C70.2091 272 72 271.895 72 273Z" fill="#D95151"/>
<path d="M454.783 95.1212C453.396 101.847 445.515 107 436 107C426.485 107 418.604 101.847 417.217 95.1212C418.604 85.9939 426.485 79 436 79C445.515 79 453.396 85.9939 454.783 95.1212Z" fill="#5AC971"/>
<path d="M419.3 81.2274C420.041 77.9519 424.244 76.9925 426.333 79.6219L428.877 82.8247C430.709 85.1301 429.506 88.5572 426.636 89.2125L423.189 89.9993C420.318 90.6545 417.747 88.0887 418.397 85.2169L419.3 81.2274Z" fill="#5AC971"/>
<path d="M452.011 81.2274C451.27 77.9519 447.066 76.9925 444.977 79.6219L442.433 82.8247C440.602 85.1301 441.804 88.5572 444.675 89.2125L448.122 89.9993C450.992 90.6545 453.563 88.0887 452.913 85.2169L452.011 81.2274Z" fill="#5AC971"/>
<path d="M424.002 92.4109C421.241 92.4106 418.924 94.7335 420.007 97.2737C420.853 99.258 422.215 101.081 424.022 102.601C427.237 105.303 431.597 106.822 436.144 106.823C440.691 106.823 445.052 105.306 448.268 102.604C450.075 101.085 451.438 99.2621 452.284 97.278C453.368 94.7382 451.052 92.4146 448.291 92.4142L436.146 92.4126L424.002 92.4109Z" fill="#FFF8B8"/>
<path d="M449 93C449 94.1046 447.209 95 445 95C442.791 95 441 94.1046 441 93C441 91.8954 442.791 92 445 92C447.209 92 449 91.8954 449 93Z" fill="#D95151"/>
<path d="M714.783 335.121C713.396 341.847 705.515 347 696 347C686.485 347 678.604 341.847 677.217 335.121C678.604 325.994 686.485 319 696 319C705.515 319 713.396 325.994 714.783 335.121Z" fill="#5AC971"/>
<path d="M679.3 321.227C680.041 317.952 684.244 316.992 686.333 319.622L688.877 322.825C690.709 325.13 689.506 328.557 686.636 329.212L683.189 329.999C680.318 330.654 677.747 328.089 678.397 325.217L679.3 321.227Z" fill="#5AC971"/>
<path d="M712.011 321.227C711.27 317.952 707.066 316.992 704.977 319.622L702.433 322.825C700.602 325.13 701.804 328.557 704.675 329.212L708.122 329.999C710.992 330.654 713.563 328.089 712.913 325.217L712.011 321.227Z" fill="#5AC971"/>
<path d="M684.002 332.411C681.241 332.411 678.924 334.734 680.007 337.274C680.853 339.258 682.215 341.081 684.022 342.601C687.237 345.303 691.597 346.822 696.144 346.823C700.691 346.823 705.052 345.306 708.268 342.604C710.075 341.085 711.438 339.262 712.284 337.278C713.368 334.738 711.052 332.415 708.291 332.414L696.146 332.413L684.002 332.411Z" fill="#FFF8B8"/>
<path d="M709 333C709 334.105 707.209 335 705 335C702.791 335 701 334.105 701 333C701 331.895 702.791 332 705 332C707.209 332 709 331.895 709 333Z" fill="#D95151"/>
<path d="M142.783 455.121C141.396 461.847 133.515 467 124 467C114.485 467 106.604 461.847 105.217 455.121C106.604 445.994 114.485 439 124 439C133.515 439 141.396 445.994 142.783 455.121Z" fill="#5AC971"/>
<path d="M107.3 441.227C108.041 437.952 112.244 436.992 114.333 439.622L116.877 442.825C118.709 445.13 117.506 448.557 114.636 449.212L111.189 449.999C108.318 450.654 105.747 448.089 106.397 445.217L107.3 441.227Z" fill="#5AC971"/>
<path d="M140.011 441.227C139.27 437.952 135.066 436.992 132.977 439.622L130.433 442.825C128.602 445.13 129.804 448.557 132.675 449.212L136.122 449.999C138.992 450.654 141.563 448.089 140.913 445.217L140.011 441.227Z" fill="#5AC971"/>
<path d="M112.002 452.411C109.241 452.411 106.924 454.734 108.007 457.274C108.853 459.258 110.215 461.081 112.022 462.601C115.237 465.303 119.597 466.822 124.144 466.823C128.691 466.823 133.052 465.306 136.268 462.604C138.075 461.085 139.438 459.262 140.284 457.278C141.368 454.738 139.052 452.415 136.291 452.414L124.146 452.413L112.002 452.411Z" fill="#FFF8B8"/>
<path d="M137 453C137 454.105 135.209 455 133 455C130.791 455 129 454.105 129 453C129 451.895 130.791 452 133 452C135.209 452 137 451.895 137 453Z" fill="#D95151"/>
<path d="M584.783 515.121C583.396 521.847 575.515 527 566 527C556.485 527 548.604 521.847 547.217 515.121C548.604 505.994 556.485 499 566 499C575.515 499 583.396 505.994 584.783 515.121Z" fill="#5AC971"/>
<path d="M549.3 501.227C550.041 497.952 554.244 496.992 556.333 499.622L558.877 502.825C560.709 505.13 559.506 508.557 556.636 509.212L553.189 509.999C550.318 510.654 547.747 508.089 548.397 505.217L549.3 501.227Z" fill="#5AC971"/>
<path d="M582.011 501.227C581.27 497.952 577.066 496.992 574.977 499.622L572.433 502.825C570.602 505.13 571.804 508.557 574.675 509.212L578.122 509.999C580.992 510.654 583.563 508.089 582.913 505.217L582.011 501.227Z" fill="#5AC971"/>
<path d="M554.002 512.411C551.241 512.411 548.924 514.734 550.007 517.274C550.853 519.258 552.215 521.081 554.022 522.601C557.237 525.303 561.597 526.822 566.144 526.823C570.691 526.823 575.052 525.306 578.268 522.604C580.075 521.085 581.438 519.262 582.284 517.278C583.368 514.738 581.052 512.415 578.291 512.414L566.146 512.413L554.002 512.411Z" fill="#FFF8B8"/>
<path d="M579 513C579 514.105 577.209 515 575 515C572.791 515 571 514.105 571 513C571 511.895 572.791 512 575 512C577.209 512 579 511.895 579 513Z" fill="#D95151"/>
<path d="M207.783 155.121C206.396 161.847 198.515 167 189 167C179.485 167 171.604 161.847 170.217 155.121C171.604 145.994 179.485 139 189 139C198.515 139 206.396 145.994 207.783 155.121Z" fill="#5AC971"/>
<path d="M172.3 141.227C173.041 137.952 177.244 136.992 179.333 139.622L181.877 142.825C183.709 145.13 182.506 148.557 179.636 149.212L176.189 149.999C173.318 150.654 170.747 148.089 171.397 145.217L172.3 141.227Z" fill="#5AC971"/>
<path d="M205.011 141.227C204.27 137.952 200.066 136.992 197.977 139.622L195.433 142.825C193.602 145.13 194.804 148.557 197.675 149.212L201.122 149.999C203.992 150.654 206.563 148.089 205.913 145.217L205.011 141.227Z" fill="#5AC971"/>
<path d="M177.002 152.411C174.241 152.411 171.924 154.734 173.007 157.274C173.853 159.258 175.215 161.081 177.022 162.601C180.237 165.303 184.597 166.822 189.144 166.823C193.691 166.823 198.052 165.306 201.268 162.604C203.075 161.085 204.438 159.262 205.284 157.278C206.368 154.738 204.052 152.415 201.291 152.414L189.146 152.413L177.002 152.411Z" fill="#FFF8B8"/>
<path d="M202 153C202 154.105 200.209 155 198 155C195.791 155 194 154.105 194 153C194 151.895 195.791 152 198 152C200.209 152 202 151.895 202 153Z" fill="#D95151"/>
<path d="M649.783 215.121C648.396 221.847 640.515 227 631 227C621.485 227 613.604 221.847 612.217 215.121C613.604 205.994 621.485 199 631 199C640.515 199 648.396 205.994 649.783 215.121Z" fill="#5AC971"/>
<path d="M614.3 201.227C615.041 197.952 619.244 196.992 621.333 199.622L623.877 202.825C625.709 205.13 624.506 208.557 621.636 209.212L618.189 209.999C615.318 210.654 612.747 208.089 613.397 205.217L614.3 201.227Z" fill="#5AC971"/>
<path d="M647.011 201.227C646.27 197.952 642.066 196.992 639.977 199.622L637.433 202.825C635.602 205.13 636.804 208.557 639.675 209.212L643.122 209.999C645.992 210.654 648.563 208.089 647.913 205.217L647.011 201.227Z" fill="#5AC971"/>
<path d="M619.002 212.411C616.241 212.411 613.924 214.734 615.007 217.274C615.853 219.258 617.215 221.081 619.022 222.601C622.237 225.303 626.597 226.822 631.144 226.823C635.691 226.823 640.052 225.306 643.268 222.604C645.075 221.085 646.438 219.262 647.284 217.278C648.368 214.738 646.052 212.415 643.291 212.414L631.146 212.413L619.002 212.411Z" fill="#FFF8B8"/>
<path d="M644 213C644 214.105 642.209 215 640 215C637.791 215 636 214.105 636 213C636 211.895 637.791 212 640 212C642.209 212 644 211.895 644 213Z" fill="#D95151"/>
<path d="M206.578 390.407C203.847 392.003 200.586 392.473 197.41 391.73C194.234 390.987 191.363 389.081 189.34 386.373C187.317 383.666 186.281 380.343 186.428 377.032C186.575 373.721 187.894 370.653 190.138 368.405C192.381 366.157 195.393 364.886 198.604 364.831C201.816 364.777 205.004 365.943 207.568 368.109C210.132 370.275 211.893 373.292 212.52 376.59C213.147 379.887 212.595 383.237 210.969 386.007L199.593 378.452L206.578 390.407Z" fill="#5AC971"/>
<path d="M206.578 390.407C204.14 391.831 201.271 392.364 198.408 391.923C195.544 391.483 192.844 390.093 190.719 387.967C188.594 385.841 187.159 383.094 186.635 380.146C186.111 377.197 186.525 374.209 187.815 371.636L199.593 378.452L206.578 390.407Z" fill="#79D88D"/>
<path d="M422.568 472.496C421.222 475.358 418.802 477.594 415.765 478.782C412.727 479.97 409.282 480.027 406.08 478.942C402.878 477.858 400.142 475.707 398.386 472.897C396.631 470.086 395.979 466.809 396.554 463.686C397.128 460.562 398.889 457.808 401.504 455.943C404.118 454.078 407.406 453.232 410.746 453.564C414.087 453.895 417.248 455.383 419.633 457.744C422.018 460.106 423.462 463.178 423.692 466.382L410.038 466.605L422.568 472.496Z" fill="#5AC971"/>
<path d="M422.568 472.496C421.367 475.051 419.305 477.116 416.696 478.376C414.088 479.635 411.076 480.021 408.12 479.474C405.163 478.927 402.425 477.476 400.322 475.344C398.219 473.212 396.867 470.516 396.471 467.665L410.038 466.605L422.568 472.496Z" fill="#79D88D"/>
<path d="M560.846 354.99C558.017 353.575 555.84 351.102 554.726 348.036C553.612 344.971 553.638 341.526 554.799 338.351C555.96 335.176 558.176 332.492 561.028 330.805C563.881 329.118 567.172 328.545 570.28 329.195C573.389 329.844 576.1 331.671 577.901 334.33C579.703 336.989 580.47 340.296 580.058 343.627C579.646 346.959 578.083 350.083 575.664 352.41C573.246 354.738 570.14 356.108 566.932 356.261L567.038 342.605L560.846 354.99Z" fill="#5AC971"/>
<path d="M560.846 354.99C558.321 353.727 556.306 351.616 555.11 348.978C553.913 346.34 553.6 343.319 554.218 340.377C554.837 337.435 556.352 334.732 558.534 332.681C560.716 330.63 563.445 329.343 566.304 329.016L567.038 342.605L560.846 354.99Z" fill="#79D88D"/>
<path d="M735.036 230.812C734.761 227.661 735.731 224.512 737.761 221.959C739.791 219.406 742.741 217.626 746.054 216.956C749.368 216.285 752.814 216.77 755.744 218.319C758.673 219.868 760.883 222.373 761.955 225.363C763.028 228.352 762.889 231.618 761.564 234.544C760.24 237.47 757.822 239.853 754.767 241.244C751.713 242.635 748.232 242.937 744.984 242.093C741.735 241.249 738.943 239.318 737.135 236.664L748.83 229.612L735.036 230.812Z" fill="#5AC971"/>
<path d="M735.035 230.812C734.791 227.999 735.537 225.178 737.159 222.778C738.782 220.379 741.193 218.532 744.024 217.521C746.855 216.509 749.951 216.387 752.841 217.174C755.73 217.962 758.254 219.614 760.028 221.88L748.83 229.612L735.035 230.812Z" fill="#79D88D"/>
<path d="M663.122 76.2948C662.848 73.1439 663.817 69.9947 665.847 67.4419C667.877 64.889 670.828 63.1092 674.141 62.4386C677.454 61.7679 680.901 62.2528 683.83 63.8016C686.76 65.3505 688.969 67.8561 690.042 70.8454C691.114 73.8347 690.975 77.1007 689.651 80.0267C688.326 82.9528 685.908 85.3362 682.854 86.7271C679.799 88.118 676.319 88.42 673.07 87.5761C669.821 86.7321 667.029 84.8007 665.221 82.1465L676.916 75.0947L663.122 76.2948Z" fill="#5AC971"/>
<path d="M663.122 76.2949C662.877 73.4821 663.623 70.6609 665.246 68.2613C666.869 65.8616 669.279 64.0152 672.11 63.0035C674.941 61.9918 678.038 61.8702 680.927 62.6573C683.816 63.4444 686.34 65.097 688.114 67.3633L676.916 75.0948L663.122 76.2949Z" fill="#79D88D"/>
<path d="M670.122 540.295C669.848 537.144 670.817 533.995 672.847 531.442C674.877 528.889 677.828 527.109 681.141 526.439C684.454 525.768 687.901 526.253 690.83 527.802C693.76 529.35 695.969 531.856 697.042 534.845C698.114 537.835 697.975 541.101 696.651 544.027C695.326 546.953 692.908 549.336 689.854 550.727C686.799 552.118 683.319 552.42 680.07 551.576C676.821 550.732 674.029 548.801 672.221 546.147L683.916 539.095L670.122 540.295Z" fill="#5AC971"/>
<path d="M670.122 540.295C669.877 537.482 670.623 534.661 672.246 532.261C673.868 529.862 676.279 528.015 679.11 527.003C681.941 525.992 685.038 525.87 687.927 526.657C690.816 527.444 693.34 529.097 695.114 531.363L683.916 539.095L670.122 540.295Z" fill="#79D88D"/>
<path d="M225.257 276.282C222.098 276.434 218.989 275.343 216.517 273.215C214.045 271.088 212.38 268.071 211.839 264.734C211.297 261.398 211.915 257.972 213.576 255.105C215.238 252.238 217.827 250.127 220.856 249.171C223.884 248.215 227.142 248.481 230.015 249.918C232.887 251.354 235.175 253.863 236.447 256.969C237.718 260.076 237.885 263.565 236.916 266.779C235.947 269.992 233.908 272.707 231.186 274.411L224.593 262.452L225.257 276.282Z" fill="#5AC971"/>
<path d="M225.257 276.282C222.437 276.417 219.647 275.563 217.312 273.848C214.977 272.134 213.226 269.653 212.324 266.785C211.423 263.917 211.422 260.818 212.32 257.962C213.219 255.105 214.968 252.647 217.301 250.962L224.593 262.452L225.257 276.282Z" fill="#79D88D"/>
<path d="M343.638 300.713C342.26 297.866 342.045 294.578 343.034 291.47C344.022 288.362 346.146 285.648 349.003 283.842C351.861 282.036 355.255 281.263 358.544 281.668C361.833 282.072 364.789 283.628 366.855 286.039C368.921 288.451 369.954 291.553 369.758 294.759C369.561 297.965 368.15 301.052 365.791 303.439C363.431 305.827 360.286 307.347 356.95 307.715C353.613 308.083 350.317 307.271 347.682 305.435L356.102 294.682L343.638 300.713Z" fill="#5AC971"/>
<path d="M343.638 300.713C342.408 298.172 342.101 295.27 342.763 292.45C343.426 289.63 345.021 287.046 347.307 285.093C349.593 283.14 352.443 281.924 355.423 281.632C358.404 281.339 361.35 281.985 363.815 283.471L356.102 294.682L343.638 300.713Z" fill="#79D88D"/>
<path d="M455.257 190.282C452.098 190.434 448.989 189.343 446.517 187.215C444.045 185.088 442.38 182.071 441.839 178.734C441.297 175.398 441.915 171.972 443.576 169.105C445.238 166.238 447.827 164.127 450.856 163.171C453.884 162.215 457.142 162.481 460.015 163.918C462.887 165.354 465.175 167.863 466.447 170.969C467.718 174.076 467.885 177.565 466.916 180.779C465.947 183.992 463.908 186.707 461.186 188.411L454.593 176.452L455.257 190.282Z" fill="#5AC971"/>
<path d="M455.257 190.282C452.437 190.417 449.647 189.563 447.312 187.848C444.977 186.134 443.226 183.653 442.324 180.785C441.423 177.917 441.422 174.818 442.32 171.962C443.219 169.105 444.968 166.647 447.301 164.962L454.593 176.452L455.257 190.282Z" fill="#79D88D"/>
<path d="M231.914 118.599C231.423 115.475 232.174 112.266 234.023 109.58C235.872 106.893 238.693 104.914 241.952 104.017C245.211 103.119 248.683 103.366 251.712 104.709C254.742 106.052 257.119 108.4 258.394 111.308C259.67 114.216 259.756 117.484 258.637 120.494C257.517 123.505 255.27 126.049 252.318 127.647C249.366 129.245 245.915 129.786 242.616 129.168C239.317 128.55 236.398 126.816 234.411 124.292L245.593 116.452L231.914 118.599Z" fill="#5AC971"/>
<path d="M231.914 118.599C231.476 115.81 232.026 112.944 233.479 110.438C234.933 107.933 237.211 105.925 239.965 104.72C242.72 103.516 245.8 103.181 248.737 103.767C251.674 104.353 254.306 105.828 256.232 107.967L245.593 116.452L231.914 118.599Z" fill="#79D88D"/>
<path d="M26.3366 83.6898C25.846 80.5653 26.5962 77.3568 28.4456 74.6701C30.295 71.9834 33.1155 70.0046 36.3745 69.1072C39.6335 68.2098 43.1055 68.456 46.1349 69.7993C49.1642 71.1426 51.5412 73.4901 52.8169 76.3984C54.0927 79.3067 54.179 82.5745 53.0595 85.5848C51.9399 88.5951 49.6921 91.1395 46.7404 92.7376C43.7888 94.3357 40.3376 94.8768 37.0385 94.2587C33.7395 93.6406 30.8209 91.9062 28.834 89.3829L40.0154 81.542L26.3366 83.6898Z" fill="#5AC971"/>
<path d="M26.3366 83.6898C25.8987 80.9006 26.4484 78.0347 27.9019 75.5289C29.3555 73.0232 31.6332 71.0151 34.3878 69.8107C37.1424 68.6062 40.2229 68.2716 43.1596 68.8577C46.0964 69.4439 48.7283 70.9186 50.6543 73.0573L40.0154 81.542L26.3366 83.6898Z" fill="#79D88D"/>
<path d="M56.5483 557.553C53.7264 556.125 51.5616 553.641 50.4628 550.57C49.3639 547.499 49.407 544.054 50.5839 540.885C51.7608 537.716 53.9901 535.043 56.8508 533.37C59.7114 531.697 63.0055 531.141 66.1109 531.806C69.2164 532.471 71.9182 534.311 73.7063 536.979C75.4944 539.647 76.2449 542.958 75.8161 546.287C75.3874 549.616 73.8091 552.732 71.3792 555.048C68.9493 557.363 65.8361 558.718 62.6274 558.855L62.8013 545.199L56.5483 557.553Z" fill="#5AC971"/>
<path d="M56.5483 557.553C54.0292 556.278 52.0252 554.157 50.8418 551.513C49.6584 548.869 49.3605 545.847 49.9934 542.908C50.6263 539.969 52.1555 537.274 54.3477 535.234C56.5399 533.194 59.2749 531.92 62.1359 531.608L62.8014 545.199L56.5483 557.553Z" fill="#79D88D"/>
<circle cx="220.319" cy="398.791" r="1" transform="rotate(86.214 220.319 398.791)" fill="#79D88D"/>
<circle cx="216.064" cy="395.064" r="1" transform="rotate(86.214 216.064 395.064)" fill="#79D88D"/>
<circle cx="230.304" cy="284.36" r="1" transform="rotate(-60.9222 230.304 284.36)" fill="#79D88D"/>
<circle cx="231.856" cy="289.8" r="1" transform="rotate(-60.9222 231.856 289.8)" fill="#79D88D"/>
<circle cx="22.6961" cy="89.814" r="1" transform="rotate(13.9421 22.6961 89.814)" fill="#79D88D"/>
<circle cx="17.8502" cy="92.7324" r="1" transform="rotate(13.9421 17.8502 92.7324)" fill="#79D88D"/>
<circle cx="56.3962" cy="564.576" r="1" transform="rotate(-17.265 56.3962 564.576)" fill="#79D88D"/>
<circle cx="53.7636" cy="569.583" r="1" transform="rotate(-17.265 53.7636 569.583)" fill="#79D88D"/>
<circle cx="697.749" cy="61.8031" r="1" transform="rotate(9.39843 697.749 61.8031)" fill="#79D88D"/>
<circle cx="693.15" cy="65.0962" r="1" transform="rotate(9.39843 693.15 65.0962)" fill="#79D88D"/>
<circle cx="731.14" cy="236.577" r="1" transform="rotate(27.0287 731.14 236.577)" fill="#79D88D"/>
<circle cx="725.759" cy="238.322" r="1" transform="rotate(27.0287 725.759 238.322)" fill="#79D88D"/>
<circle cx="264.101" cy="99.1009" r="1" transform="rotate(0.600686 264.101 99.1009)" fill="#79D88D"/>
<circle cx="260.059" cy="103.059" r="1" transform="rotate(0.600686 260.059 103.059)" fill="#79D88D"/>
<circle cx="371.097" cy="272.156" r="1" transform="rotate(-9.80596 371.097 272.156)" fill="#79D88D"/>
<circle cx="367.837" cy="276.779" r="1" transform="rotate(-9.80596 367.837 276.779)" fill="#79D88D"/>
<circle cx="460.914" cy="201.717" r="1" transform="rotate(116.802 460.914 201.717)" fill="#79D88D"/>
<circle cx="459.147" cy="196.343" r="1" transform="rotate(116.802 459.147 196.343)" fill="#79D88D"/>
<circle cx="565.462" cy="322.042" r="1" transform="rotate(130.16 565.462 322.042)" fill="#79D88D"/>
<circle cx="564.985" cy="316.406" r="1" transform="rotate(130.16 564.985 316.406)" fill="#79D88D"/>
<circle cx="433.686" cy="474.627" r="1" transform="rotate(74.6487 433.686 474.627)" fill="#79D88D"/>
<circle cx="428.769" cy="471.828" r="1" transform="rotate(74.6487 428.769 471.828)" fill="#79D88D"/>
<circle cx="664.245" cy="546.421" r="1" transform="rotate(17.0334 664.245 546.421)" fill="#79D88D"/>
<circle cx="659.249" cy="549.074" r="1" transform="rotate(17.0334 659.249 549.074)" fill="#79D88D"/>
</g>
<defs>
<filter id="filter0_f_12_35" x="0" y="0" width="810" height="610" filterUnits="userSpaceOnUse" color-interpolation-filters="sRGB">
<feFlood flood-opacity="0" result="BackgroundImageFix"/>
<feBlend mode="normal" in="SourceGraphic" in2="BackgroundImageFix" result="shape"/>
<feGaussianBlur stdDeviation="2.5" result="effect1_foregroundBlur_12_35"/>
</filter>
</defs>
</svg>
